# xmcd CD database file
#
# Track frame offsets:
#	150
#	16694
#	31710
#	45821
#	59273
#	78421
#	92526
#	111589
#	125668
#	137970
#	149013
#	166924
#	179432
#	193652
#
# Disc length: 2736 seconds
#
# Revision: 4
# Processed by: cddbd v1.5PL3 Copyright (c) Steve Scherf et al.
# Submitted via: CDex 1.50
#
DISCID=ba0aae0e
DTITLE=Norah Jones - Come Away With Me
DYEAR=1900
DGENRE=Jazz
TTITLE0=Cold Cold Heart
TTITLE1=Come Away With  Me
TTITLE2=Don't Know Why
TTITLE3=Feelin' The Same Way
TTITLE4=I've Got To See You Again
TTITLE5=Lonestar
TTITLE6=Nightingale
TTITLE7=One Flight Down
TTITLE8=Painter Song
TTITLE9=Seven Years
TTITLE10=Shoot The Moon
TTITLE11=The Long Day Is Over
TTITLE12=The Nearness Of You
TTITLE13=Turn Me On
EXTD=
EXTT0=
EXTT1=
EXTT2=
EXTT3=
EXTT4=
EXTT5=
EXTT6=
EXTT7=
EXTT8=
EXTT9=
EXTT10=
EXTT11=
EXTT12=
EXTT13=
PLAYORDER=
